<?xml version="1.0" encoding="utf-8" standalone="no"?>
<!DOCTYPE svg PUBLIC "-//W3C//DTD SVG 1.1//EN"
  "http://www.w3.org/Graphics/SVG/1.1/DTD/svg11.dtd">
<svg xmlns:xlink="http://www.w3.org/1999/xlink" width="754.395pt" height="369.57pt" viewBox="0 0 754.395 369.57" xmlns="http://www.w3.org/2000/svg" version="1.1">
 <metadata>
  <rdf:RDF xmlns:dc="http://purl.org/dc/elements/1.1/" xmlns:cc="http://creativecommons.org/ns#" xmlns:rdf="http://www.w3.org/1999/02/22-rdf-syntax-ns#">
   <cc:Work>
    <dc:type rdf:resource="http://purl.org/dc/dcmitype/StillImage"/>
    <dc:date>2025-06-05T20:48:21.941468</dc:date>
    <dc:format>image/svg+xml</dc:format>
    <dc:creator>
     <cc:Agent>
      <dc:title>Matplotlib v3.9.0, https://matplotlib.org/</dc:title>
     </cc:Agent>
    </dc:creator>
   </cc:Work>
  </rdf:RDF>
 </metadata>
 <defs>
  <style type="text/css">*{stroke-linejoin: round; stroke-linecap: butt}</style>
 </defs>
 <g id="figure_1">
  <g id="patch_1">
   <path d="M 0 369.57 
L 754.395 369.57 
L 754.395 0 
L 0 0 
L 0 369.57 
z
" style="fill: none"/>
  </g>
  <g id="axes_1">
   <g id="patch_2">
    <path d="M 77.595 320.4 
L 747.195 320.4 
L 747.195 43.2 
L 77.595 43.2 
L 77.595 320.4 
z
" style="fill: none"/>
   </g>
   <g id="matplotlib.axis_1">
    <g id="xtick_1">
     <g id="line2d_1">
      <path d="M 108.031364 320.4 
L 108.031364 43.2 
" clip-path="url(#p0895d2f44c)" style="fill: none; stroke-dasharray: 2.96,1.28; stroke-dashoffset: 0; stroke: #b0b0b0; stroke-opacity: 0.3; stroke-width: 0.8"/>
     </g>
     <g id="line2d_2">
      <defs>
       <path id="m52f79f821f" d="M 0 0 
L 0 3.5 
" style="stroke: #000000; stroke-width: 0.8"/>
      </defs>
      <g>
       <use xlink:href="#m52f79f821f" x="108.031364" y="320.4" style="stroke: #000000; stroke-width: 0.8"/>
      </g>
     </g>
     <g id="text_1">
      <text style="font: 15px 'DejaVu Sans', 'Bitstream Vera Sans', 'Computer Modern Sans Serif', 'Lucida Grande', 'Verdana', 'Geneva', 'Lucid', 'Arial', 'Helvetica', 'Avant Garde', sans-serif; text-anchor: middle" x="108.031364" y="338.797656" transform="rotate(-0 108.031364 338.797656)">AW</text>
     </g>
    </g>
    <g id="xtick_2">
     <g id="line2d_3">
      <path d="M 412.395 320.4 
L 412.395 43.2 
" clip-path="url(#p0895d2f44c)" style="fill: none; stroke-dasharray: 2.96,1.28; stroke-dashoffset: 0; stroke: #b0b0b0; stroke-opacity: 0.3; stroke-width: 0.8"/>
     </g>
     <g id="line2d_4">
      <g>
       <use xlink:href="#m52f79f821f" x="412.395" y="320.4" style="stroke: #000000; stroke-width: 0.8"/>
      </g>
     </g>
     <g id="text_2">
      <text style="font: 15px 'DejaVu Sans', 'Bitstream Vera Sans', 'Computer Modern Sans Serif', 'Lucida Grande', 'Verdana', 'Geneva', 'Lucid', 'Arial', 'Helvetica', 'Avant Garde', sans-serif; text-anchor: middle" x="412.395" y="338.797656" transform="rotate(-0 412.395 338.797656)">NREM</text>
     </g>
    </g>
    <g id="xtick_3">
     <g id="line2d_5">
      <path d="M 716.758636 320.4 
L 716.758636 43.2 
" clip-path="url(#p0895d2f44c)" style="fill: none; stroke-dasharray: 2.96,1.28; stroke-dashoffset: 0; stroke: #b0b0b0; stroke-opacity: 0.3; stroke-width: 0.8"/>
     </g>
     <g id="line2d_6">
      <g>
       <use xlink:href="#m52f79f821f" x="716.758636" y="320.4" style="stroke: #000000; stroke-width: 0.8"/>
      </g>
     </g>
     <g id="text_3">
      <text style="font: 15px 'DejaVu Sans', 'Bitstream Vera Sans', 'Computer Modern Sans Serif', 'Lucida Grande', 'Verdana', 'Geneva', 'Lucid', 'Arial', 'Helvetica', 'Avant Garde', sans-serif; text-anchor: middle" x="716.758636" y="338.797656" transform="rotate(-0 716.758636 338.797656)">REM</text>
     </g>
    </g>
    <g id="text_4">
     <text style="font: 17px 'DejaVu Sans', 'Bitstream Vera Sans', 'Computer Modern Sans Serif', 'Lucida Grande', 'Verdana', 'Geneva', 'Lucid', 'Arial', 'Helvetica', 'Avant Garde', sans-serif; text-anchor: middle" x="412.395" y="358.834531" transform="rotate(-0 412.395 358.834531)">Brain State</text>
    </g>
   </g>
   <g id="matplotlib.axis_2">
    <g id="ytick_1">
     <g id="line2d_7">
      <path d="M 77.595 288.734018 
L 747.195 288.734018 
" clip-path="url(#p0895d2f44c)" style="fill: none; stroke-dasharray: 2.96,1.28; stroke-dashoffset: 0; stroke: #b0b0b0; stroke-opacity: 0.3; stroke-width: 0.8"/>
     </g>
     <g id="line2d_8">
      <defs>
       <path id="mc992c02883" d="M 0 0 
L -3.5 0 
" style="stroke: #000000; stroke-width: 0.8"/>
      </defs>
      <g>
       <use xlink:href="#mc992c02883" x="77.595" y="288.734018" style="stroke: #000000; stroke-width: 0.8"/>
      </g>
     </g>
     <g id="text_5">
      <text style="font: 15px 'DejaVu Sans', 'Bitstream Vera Sans', 'Computer Modern Sans Serif', 'Lucida Grande', 'Verdana', 'Geneva', 'Lucid', 'Arial', 'Helvetica', 'Avant Garde', sans-serif; text-anchor: end" x="70.595" y="294.432846" transform="rotate(-0 70.595 294.432846)">0.025</text>
     </g>
    </g>
    <g id="ytick_2">
     <g id="line2d_9">
      <path d="M 77.595 255.644649 
L 747.195 255.644649 
" clip-path="url(#p0895d2f44c)" style="fill: none; stroke-dasharray: 2.96,1.28; stroke-dashoffset: 0; stroke: #b0b0b0; stroke-opacity: 0.3; stroke-width: 0.8"/>
     </g>
     <g id="line2d_10">
      <g>
       <use xlink:href="#mc992c02883" x="77.595" y="255.644649" style="stroke: #000000; stroke-width: 0.8"/>
      </g>
     </g>
     <g id="text_6">
      <text style="font: 15px 'DejaVu Sans', 'Bitstream Vera Sans', 'Computer Modern Sans Serif', 'Lucida Grande', 'Verdana', 'Geneva', 'Lucid', 'Arial', 'Helvetica', 'Avant Garde', sans-serif; text-anchor: end" x="70.595" y="261.343477" transform="rotate(-0 70.595 261.343477)">0.050</text>
     </g>
    </g>
    <g id="ytick_3">
     <g id="line2d_11">
      <path d="M 77.595 222.555279 
L 747.195 222.555279 
" clip-path="url(#p0895d2f44c)" style="fill: none; stroke-dasharray: 2.96,1.28; stroke-dashoffset: 0; stroke: #b0b0b0; stroke-opacity: 0.3; stroke-width: 0.8"/>
     </g>
     <g id="line2d_12">
      <g>
       <use xlink:href="#mc992c02883" x="77.595" y="222.555279" style="stroke: #000000; stroke-width: 0.8"/>
      </g>
     </g>
     <g id="text_7">
      <text style="font: 15px 'DejaVu Sans', 'Bitstream Vera Sans', 'Computer Modern Sans Serif', 'Lucida Grande', 'Verdana', 'Geneva', 'Lucid', 'Arial', 'Helvetica', 'Avant Garde', sans-serif; text-anchor: end" x="70.595" y="228.254107" transform="rotate(-0 70.595 228.254107)">0.075</text>
     </g>
    </g>
    <g id="ytick_4">
     <g id="line2d_13">
      <path d="M 77.595 189.46591 
L 747.195 189.46591 
" clip-path="url(#p0895d2f44c)" style="fill: none; stroke-dasharray: 2.96,1.28; stroke-dashoffset: 0; stroke: #b0b0b0; stroke-opacity: 0.3; stroke-width: 0.8"/>
     </g>
     <g id="line2d_14">
      <g>
       <use xlink:href="#mc992c02883" x="77.595" y="189.46591" style="stroke: #000000; stroke-width: 0.8"/>
      </g>
     </g>
     <g id="text_8">
      <text style="font: 15px 'DejaVu Sans', 'Bitstream Vera Sans', 'Computer Modern Sans Serif', 'Lucida Grande', 'Verdana', 'Geneva', 'Lucid', 'Arial', 'Helvetica', 'Avant Garde', sans-serif; text-anchor: end" x="70.595" y="195.164738" transform="rotate(-0 70.595 195.164738)">0.100</text>
     </g>
    </g>
    <g id="ytick_5">
     <g id="line2d_15">
      <path d="M 77.595 156.37654 
L 747.195 156.37654 
" clip-path="url(#p0895d2f44c)" style="fill: none; stroke-dasharray: 2.96,1.28; stroke-dashoffset: 0; stroke: #b0b0b0; stroke-opacity: 0.3; stroke-width: 0.8"/>
     </g>
     <g id="line2d_16">
      <g>
       <use xlink:href="#mc992c02883" x="77.595" y="156.37654" style="stroke: #000000; stroke-width: 0.8"/>
      </g>
     </g>
     <g id="text_9">
      <text style="font: 15px 'DejaVu Sans', 'Bitstream Vera Sans', 'Computer Modern Sans Serif', 'Lucida Grande', 'Verdana', 'Geneva', 'Lucid', 'Arial', 'Helvetica', 'Avant Garde', sans-serif; text-anchor: end" x="70.595" y="162.075368" transform="rotate(-0 70.595 162.075368)">0.125</text>
     </g>
    </g>
    <g id="ytick_6">
     <g id="line2d_17">
      <path d="M 77.595 123.287171 
L 747.195 123.287171 
" clip-path="url(#p0895d2f44c)" style="fill: none; stroke-dasharray: 2.96,1.28; stroke-dashoffset: 0; stroke: #b0b0b0; stroke-opacity: 0.3; stroke-width: 0.8"/>
     </g>
     <g id="line2d_18">
      <g>
       <use xlink:href="#mc992c02883" x="77.595" y="123.287171" style="stroke: #000000; stroke-width: 0.8"/>
      </g>
     </g>
     <g id="text_10">
      <text style="font: 15px 'DejaVu Sans', 'Bitstream Vera Sans', 'Computer Modern Sans Serif', 'Lucida Grande', 'Verdana', 'Geneva', 'Lucid', 'Arial', 'Helvetica', 'Avant Garde', sans-serif; text-anchor: end" x="70.595" y="128.985999" transform="rotate(-0 70.595 128.985999)">0.150</text>
     </g>
    </g>
    <g id="ytick_7">
     <g id="line2d_19">
      <path d="M 77.595 90.197801 
L 747.195 90.197801 
" clip-path="url(#p0895d2f44c)" style="fill: none; stroke-dasharray: 2.96,1.28; stroke-dashoffset: 0; stroke: #b0b0b0; stroke-opacity: 0.3; stroke-width: 0.8"/>
     </g>
     <g id="line2d_20">
      <g>
       <use xlink:href="#mc992c02883" x="77.595" y="90.197801" style="stroke: #000000; stroke-width: 0.8"/>
      </g>
     </g>
     <g id="text_11">
      <text style="font: 15px 'DejaVu Sans', 'Bitstream Vera Sans', 'Computer Modern Sans Serif', 'Lucida Grande', 'Verdana', 'Geneva', 'Lucid', 'Arial', 'Helvetica', 'Avant Garde', sans-serif; text-anchor: end" x="70.595" y="95.896629" transform="rotate(-0 70.595 95.896629)">0.175</text>
     </g>
    </g>
    <g id="ytick_8">
     <g id="line2d_21">
      <path d="M 77.595 57.108432 
L 747.195 57.108432 
" clip-path="url(#p0895d2f44c)" style="fill: none; stroke-dasharray: 2.96,1.28; stroke-dashoffset: 0; stroke: #b0b0b0; stroke-opacity: 0.3; stroke-width: 0.8"/>
     </g>
     <g id="line2d_22">
      <g>
       <use xlink:href="#mc992c02883" x="77.595" y="57.108432" style="stroke: #000000; stroke-width: 0.8"/>
      </g>
     </g>
     <g id="text_12">
      <text style="font: 15px 'DejaVu Sans', 'Bitstream Vera Sans', 'Computer Modern Sans Serif', 'Lucida Grande', 'Verdana', 'Geneva', 'Lucid', 'Arial', 'Helvetica', 'Avant Garde', sans-serif; text-anchor: end" x="70.595" y="62.80726" transform="rotate(-0 70.595 62.80726)">0.200</text>
     </g>
    </g>
    <g id="text_13">
     <text style="font: 17px 'DejaVu Sans', 'Bitstream Vera Sans', 'Computer Modern Sans Serif', 'Lucida Grande', 'Verdana', 'Geneva', 'Lucid', 'Arial', 'Helvetica', 'Avant Garde', sans-serif; text-anchor: middle" x="20.117344" y="181.8" transform="rotate(-90 20.117344 181.8)">Mean CURBD Score</text>
    </g>
   </g>
   <g id="line2d_23">
    <path d="M 108.031364 113.660652 
L 412.395 307.8 
L 716.758636 132.17307 
" clip-path="url(#p0895d2f44c)" style="fill: none; stroke: #1f77b4; stroke-width: 1.5; stroke-linecap: square"/>
    <defs>
     <path id="m9945f7277b" d="M 0 6 
C 1.591219 6 3.117479 5.367802 4.242641 4.242641 
C 5.367802 3.117479 6 1.591219 6 0 
C 6 -1.591219 5.367802 -3.117479 4.242641 -4.242641 
C 3.117479 -5.367802 1.591219 -6 0 -6 
C -1.591219 -6 -3.117479 -5.367802 -4.242641 -4.242641 
C -5.367802 -3.117479 -6 -1.591219 -6 0 
C -6 1.591219 -5.367802 3.117479 -4.242641 4.242641 
C -3.117479 5.367802 -1.591219 6 0 6 
z
" style="stroke: #1f77b4"/>
    </defs>
    <g clip-path="url(#p0895d2f44c)">
     <use xlink:href="#m9945f7277b" x="108.031364" y="113.660652" style="fill: #1f77b4; stroke: #1f77b4"/>
     <use xlink:href="#m9945f7277b" x="412.395" y="307.8" style="fill: #1f77b4; stroke: #1f77b4"/>
     <use xlink:href="#m9945f7277b" x="716.758636" y="132.17307" style="fill: #1f77b4; stroke: #1f77b4"/>
    </g>
   </g>
   <g id="line2d_24">
    <path d="M 108.031364 71.626617 
L 412.395 290.547971 
L 716.758636 131.481353 
" clip-path="url(#p0895d2f44c)" style="fill: none; stroke: #ff7f0e; stroke-width: 1.5; stroke-linecap: square"/>
    <defs>
     <path id="m87baea2faf" d="M 0 6 
C 1.591219 6 3.117479 5.367802 4.242641 4.242641 
C 5.367802 3.117479 6 1.591219 6 0 
C 6 -1.591219 5.367802 -3.117479 4.242641 -4.242641 
C 3.117479 -5.367802 1.591219 -6 0 -6 
C -1.591219 -6 -3.117479 -5.367802 -4.242641 -4.242641 
C -5.367802 -3.117479 -6 -1.591219 -6 0 
C -6 1.591219 -5.367802 3.117479 -4.242641 4.242641 
C -3.117479 5.367802 -1.591219 6 0 6 
z
" style="stroke: #ff7f0e"/>
    </defs>
    <g clip-path="url(#p0895d2f44c)">
     <use xlink:href="#m87baea2faf" x="108.031364" y="71.626617" style="fill: #ff7f0e; stroke: #ff7f0e"/>
     <use xlink:href="#m87baea2faf" x="412.395" y="290.547971" style="fill: #ff7f0e; stroke: #ff7f0e"/>
     <use xlink:href="#m87baea2faf" x="716.758636" y="131.481353" style="fill: #ff7f0e; stroke: #ff7f0e"/>
    </g>
   </g>
   <g id="line2d_25">
    <path d="M 108.031364 55.8 
L 412.395 292.908787 
L 716.758636 71.734955 
" clip-path="url(#p0895d2f44c)" style="fill: none; stroke: #2ca02c; stroke-width: 1.5; stroke-linecap: square"/>
    <defs>
     <path id="m9d2dc44158" d="M 0 6 
C 1.591219 6 3.117479 5.367802 4.242641 4.242641 
C 5.367802 3.117479 6 1.591219 6 0 
C 6 -1.591219 5.367802 -3.117479 4.242641 -4.242641 
C 3.117479 -5.367802 1.591219 -6 0 -6 
C -1.591219 -6 -3.117479 -5.367802 -4.242641 -4.242641 
C -5.367802 -3.117479 -6 -1.591219 -6 0 
C -6 1.591219 -5.367802 3.117479 -4.242641 4.242641 
C -3.117479 5.367802 -1.591219 6 0 6 
z
" style="stroke: #2ca02c"/>
    </defs>
    <g clip-path="url(#p0895d2f44c)">
     <use xlink:href="#m9d2dc44158" x="108.031364" y="55.8" style="fill: #2ca02c; stroke: #2ca02c"/>
     <use xlink:href="#m9d2dc44158" x="412.395" y="292.908787" style="fill: #2ca02c; stroke: #2ca02c"/>
     <use xlink:href="#m9d2dc44158" x="716.758636" y="71.734955" style="fill: #2ca02c; stroke: #2ca02c"/>
    </g>
   </g>
   <g id="line2d_26">
    <path d="M 108.031364 100.168275 
L 412.395 303.984717 
L 716.758636 103.885144 
" clip-path="url(#p0895d2f44c)" style="fill: none; stroke: #d62728; stroke-width: 1.5; stroke-linecap: square"/>
    <defs>
     <path id="mf53c33744a" d="M 0 6 
C 1.591219 6 3.117479 5.367802 4.242641 4.242641 
C 5.367802 3.117479 6 1.591219 6 0 
C 6 -1.591219 5.367802 -3.117479 4.242641 -4.242641 
C 3.117479 -5.367802 1.591219 -6 0 -6 
C -1.591219 -6 -3.117479 -5.367802 -4.242641 -4.242641 
C -5.367802 -3.117479 -6 -1.591219 -6 0 
C -6 1.591219 -5.367802 3.117479 -4.242641 4.242641 
C -3.117479 5.367802 -1.591219 6 0 6 
z
" style="stroke: #d62728"/>
    </defs>
    <g clip-path="url(#p0895d2f44c)">
     <use xlink:href="#mf53c33744a" x="108.031364" y="100.168275" style="fill: #d62728; stroke: #d62728"/>
     <use xlink:href="#mf53c33744a" x="412.395" y="303.984717" style="fill: #d62728; stroke: #d62728"/>
     <use xlink:href="#mf53c33744a" x="716.758636" y="103.885144" style="fill: #d62728; stroke: #d62728"/>
    </g>
   </g>
   <g id="line2d_27">
    <path d="M 108.031364 130.573986 
L 412.395 302.493369 
L 716.758636 157.322099 
" clip-path="url(#p0895d2f44c)" style="fill: none; stroke: #9467bd; stroke-width: 1.5; stroke-linecap: square"/>
    <defs>
     <path id="mbbfb40f6c6" d="M 0 6 
C 1.591219 6 3.117479 5.367802 4.242641 4.242641 
C 5.367802 3.117479 6 1.591219 6 0 
C 6 -1.591219 5.367802 -3.117479 4.242641 -4.242641 
C 3.117479 -5.367802 1.591219 -6 0 -6 
C -1.591219 -6 -3.117479 -5.367802 -4.242641 -4.242641 
C -5.367802 -3.117479 -6 -1.591219 -6 0 
C -6 1.591219 -5.367802 3.117479 -4.242641 4.242641 
C -3.117479 5.367802 -1.591219 6 0 6 
z
" style="stroke: #9467bd"/>
    </defs>
    <g clip-path="url(#p0895d2f44c)">
     <use xlink:href="#mbbfb40f6c6" x="108.031364" y="130.573986" style="fill: #9467bd; stroke: #9467bd"/>
     <use xlink:href="#mbbfb40f6c6" x="412.395" y="302.493369" style="fill: #9467bd; stroke: #9467bd"/>
     <use xlink:href="#mbbfb40f6c6" x="716.758636" y="157.322099" style="fill: #9467bd; stroke: #9467bd"/>
    </g>
   </g>
   <g id="line2d_28">
    <path d="M 108.031364 61.802457 
L 412.395 288.606605 
L 716.758636 111.623388 
" clip-path="url(#p0895d2f44c)" style="fill: none; stroke: #8c564b; stroke-width: 1.5; stroke-linecap: square"/>
    <defs>
     <path id="mf1230b3477" d="M 0 6 
C 1.591219 6 3.117479 5.367802 4.242641 4.242641 
C 5.367802 3.117479 6 1.591219 6 0 
C 6 -1.591219 5.367802 -3.117479 4.242641 -4.242641 
C 3.117479 -5.367802 1.591219 -6 0 -6 
C -1.591219 -6 -3.117479 -5.367802 -4.242641 -4.242641 
C -5.367802 -3.117479 -6 -1.591219 -6 0 
C -6 1.591219 -5.367802 3.117479 -4.242641 4.242641 
C -3.117479 5.367802 -1.591219 6 0 6 
z
" style="stroke: #8c564b"/>
    </defs>
    <g clip-path="url(#p0895d2f44c)">
     <use xlink:href="#mf1230b3477" x="108.031364" y="61.802457" style="fill: #8c564b; stroke: #8c564b"/>
     <use xlink:href="#mf1230b3477" x="412.395" y="288.606605" style="fill: #8c564b; stroke: #8c564b"/>
     <use xlink:href="#mf1230b3477" x="716.758636" y="111.623388" style="fill: #8c564b; stroke: #8c564b"/>
    </g>
   </g>
   <g id="patch_3">
    <path d="M 77.595 320.4 
L 77.595 43.2 
" style="fill: none; stroke: #000000; stroke-width: 0.8; stroke-linejoin: miter; stroke-linecap: square"/>
   </g>
   <g id="patch_4">
    <path d="M 747.195 320.4 
L 747.195 43.2 
" style="fill: none; stroke: #000000; stroke-width: 0.8; stroke-linejoin: miter; stroke-linecap: square"/>
   </g>
   <g id="patch_5">
    <path d="M 77.595 320.4 
L 747.195 320.4 
" style="fill: none; stroke: #000000; stroke-width: 0.8; stroke-linejoin: miter; stroke-linecap: square"/>
   </g>
   <g id="patch_6">
    <path d="M 77.595 43.2 
L 747.195 43.2 
" style="fill: none; stroke: #000000; stroke-width: 0.8; stroke-linejoin: miter; stroke-linecap: square"/>
   </g>
   <g id="legend_1">
    <g id="patch_7">
     <path d="M 84.595 315.4 
L 264.085625 315.4 
Q 266.085625 315.4 266.085625 313.4 
L 266.085625 226.33125 
Q 266.085625 224.33125 264.085625 224.33125 
L 84.595 224.33125 
Q 82.595 224.33125 82.595 226.33125 
L 82.595 313.4 
Q 82.595 315.4 84.595 315.4 
z
" style="fill: #ffffff; opacity: 0.8; stroke: #cccccc; stroke-linejoin: miter"/>
    </g>
    <g id="line2d_29">
     <path d="M 86.595 232.429687 
L 96.595 232.429687 
L 106.595 232.429687 
" style="fill: none; stroke: #1f77b4; stroke-width: 1.5; stroke-linecap: square"/>
     <g>
      <use xlink:href="#m9945f7277b" x="96.595" y="232.429687" style="fill: #1f77b4; stroke: #1f77b4"/>
     </g>
    </g>
    <g id="text_14">
     <text style="font: 10px 'DejaVu Sans', 'Bitstream Vera Sans', 'Computer Modern Sans Serif', 'Lucida Grande', 'Verdana', 'Geneva', 'Lucid', 'Arial', 'Helvetica', 'Avant Garde', sans-serif; text-anchor: start" x="114.595" y="235.929687" transform="rotate(-0 114.595 235.929687)">r14ProbeSleep.pkl</text>
    </g>
    <g id="line2d_30">
     <path d="M 86.595 247.107812 
L 96.595 247.107812 
L 106.595 247.107812 
" style="fill: none; stroke: #ff7f0e; stroke-width: 1.5; stroke-linecap: square"/>
     <g>
      <use xlink:href="#m87baea2faf" x="96.595" y="247.107812" style="fill: #ff7f0e; stroke: #ff7f0e"/>
     </g>
    </g>
    <g id="text_15">
     <text style="font: 10px 'DejaVu Sans', 'Bitstream Vera Sans', 'Computer Modern Sans Serif', 'Lucida Grande', 'Verdana', 'Geneva', 'Lucid', 'Arial', 'Helvetica', 'Avant Garde', sans-serif; text-anchor: start" x="114.595" y="250.607812" transform="rotate(-0 114.595 250.607812)">r20FearConditioningSleep.pkl</text>
    </g>
    <g id="line2d_31">
     <path d="M 86.595 261.785937 
L 96.595 261.785937 
L 106.595 261.785937 
" style="fill: none; stroke: #2ca02c; stroke-width: 1.5; stroke-linecap: square"/>
     <g>
      <use xlink:href="#m9d2dc44158" x="96.595" y="261.785937" style="fill: #2ca02c; stroke: #2ca02c"/>
     </g>
    </g>
    <g id="text_16">
     <text style="font: 10px 'DejaVu Sans', 'Bitstream Vera Sans', 'Computer Modern Sans Serif', 'Lucida Grande', 'Verdana', 'Geneva', 'Lucid', 'Arial', 'Helvetica', 'Avant Garde', sans-serif; text-anchor: start" x="114.595" y="265.285937" transform="rotate(-0 114.595 265.285937)">r20ProbeSleep.pkl</text>
    </g>
    <g id="line2d_32">
     <path d="M 86.595 276.464062 
L 96.595 276.464062 
L 106.595 276.464062 
" style="fill: none; stroke: #d62728; stroke-width: 1.5; stroke-linecap: square"/>
     <g>
      <use xlink:href="#mf53c33744a" x="96.595" y="276.464062" style="fill: #d62728; stroke: #d62728"/>
     </g>
    </g>
    <g id="text_17">
     <text style="font: 10px 'DejaVu Sans', 'Bitstream Vera Sans', 'Computer Modern Sans Serif', 'Lucida Grande', 'Verdana', 'Geneva', 'Lucid', 'Arial', 'Helvetica', 'Avant Garde', sans-serif; text-anchor: start" x="114.595" y="279.964062" transform="rotate(-0 114.595 279.964062)">r14HabituationSleep.pkl</text>
    </g>
    <g id="line2d_33">
     <path d="M 86.595 291.142187 
L 96.595 291.142187 
L 106.595 291.142187 
" style="fill: none; stroke: #9467bd; stroke-width: 1.5; stroke-linecap: square"/>
     <g>
      <use xlink:href="#mbbfb40f6c6" x="96.595" y="291.142187" style="fill: #9467bd; stroke: #9467bd"/>
     </g>
    </g>
    <g id="text_18">
     <text style="font: 10px 'DejaVu Sans', 'Bitstream Vera Sans', 'Computer Modern Sans Serif', 'Lucida Grande', 'Verdana', 'Geneva', 'Lucid', 'Arial', 'Helvetica', 'Avant Garde', sans-serif; text-anchor: start" x="114.595" y="294.642187" transform="rotate(-0 114.595 294.642187)">r14FearConditioningSleep.pkl</text>
    </g>
    <g id="line2d_34">
     <path d="M 86.595 305.820312 
L 96.595 305.820312 
L 106.595 305.820312 
" style="fill: none; stroke: #8c564b; stroke-width: 1.5; stroke-linecap: square"/>
     <g>
      <use xlink:href="#mf1230b3477" x="96.595" y="305.820312" style="fill: #8c564b; stroke: #8c564b"/>
     </g>
    </g>
    <g id="text_19">
     <text style="font: 10px 'DejaVu Sans', 'Bitstream Vera Sans', 'Computer Modern Sans Serif', 'Lucida Grande', 'Verdana', 'Geneva', 'Lucid', 'Arial', 'Helvetica', 'Avant Garde', sans-serif; text-anchor: start" x="114.595" y="309.320312" transform="rotate(-0 114.595 309.320312)">r20HabituationSleep.pkl</text>
    </g>
   </g>
  </g>
  <g id="text_20">
   <text style="font: 19px 'DejaVu Sans', 'Bitstream Vera Sans', 'Computer Modern Sans Serif', 'Lucida Grande', 'Verdana', 'Geneva', 'Lucid', 'Arial', 'Helvetica', 'Avant Garde', sans-serif; text-anchor: middle" x="401.595" y="21.637031" transform="rotate(-0 401.595 21.637031)">Top 5% REM and awake, bottom 25% NREM - all sessions</text>
  </g>
 </g>
 <defs>
  <clipPath id="p0895d2f44c">
   <rect x="77.595" y="43.2" width="669.6" height="277.2"/>
  </clipPath>
 </defs>
</svg>
